#!OML:ASF F:\VICON\USERDATA\INSTALL\rory3\rory3.ASF
:FULLY-SPECIFIED
:DEGREES
442
root 0.779848 19.0236 -18.1248 -165.841 -8.45355 -172.529
lowerback -7.44304 0.706616 2.55639
upperback -3.80746 0.386221 2.76329
thorax 0.244672 0.0278771 1.43906
lowerneck -14.6445 -0.544883 -0.321365
upperneck 33.902 -4.9007 3.27746
head 14.1345 -2.72154 0.332114
rclavicle -6.52883e-015 -1.65985e-014
rhumerus -315.403 29.0041 299.397
rradius 90.9348
rwrist -37.3604
rhand 0.940404 374.371
rfingers 7.12502
rthumb 26.4908 -13.7969
lclavicle -6.52883e-015 -1.65985e-014
lhumerus 78.2839 -40.7023 33.7699
lradius 97.9375
lwrist 27.4924
lhand -18.5238 17.6458
lfingers 7.12502
lthumb 7.76476 47.4832
rfemur 130.109 -184.897 -151.723
rtibia 41.3765
rfoot 2.06899 -39.9422
rtoes 46.0687
lfemur -38.005 -10.5605 -13.5767
ltibia 39.6107
lfoot -23.0694 18.1876
ltoes 21.7334
443
root 0.780101 18.9728 -18.2704 -166.294 -8.08993 -172.475
lowerback -6.9406 0.632713 2.60428
upperback -3.54906 0.32452 2.85365
thorax 0.233254 0.00961902 1.49767
lowerneck -14.3507 -0.294879 0.0644248
upperneck 33.6967 -4.43061 2.81151
head 13.9399 -2.53249 0.161886
rclavicle -8.07563e-017 1.81888e-014
rhumerus -316.181 29.3683 297.866
rradius 89.7941
rwrist -35.7242
rhand 0.98468 380.463
rfingers 7.12502
rthumb 26.5332 -7.6984
lclavicle -8.07563e-017 1.81888e-014
lhumerus 77.1556 -41.3717 34.8264
lradius 99.8047
lwrist 26.7127
lhand -17.3321 20.0557
lfingers 7.12502
lthumb 8.91488 49.8474
rfemur 129.438 -185.063 -151.815
rtibia 40.9507
rfoot 0.366933 -40.247
rtoes 46.5883
lfemur -37.8668 -10.7108 -13.7753
ltibia 39.5661
lfoot -21.5755 19.7842
ltoes 19.8461
444
root 0.793292 18.8977 -18.4121 -166.575 -7.35242 -172.408
lowerback -6.39448 0.689408 2.48052
upperback -3.55592 0.440682 2.87052
thorax -0.0785331 0.0710864 1.5884
lowerneck -13.3336 -0.0214837 0.641817
upperneck 33.2801 -4.02808 2.40255
head 13.5007 -2.3716 -0.0210492
rclavicle -4.31114e-015 1.98785e-016
rhumerus -316.779 30.4216 297.313
rradius 87.2765
rwrist -32.8587
rhand -1.36309 395.998
rfingers 7.12502
rthumb 24.2841 7.51634
lclavicle -4.31114e-015 1.98785e-016
lhumerus 75.6768 -42.3494 36.1761
lradius 102.219
lwrist 25.559
lhand -14.4927 23.5332
lfingers 7.12502
lthumb 11.654 53.1891
rfemur 128.374 -186.014 -152.064
rtibia 40.6107
rfoot -4.40009 -41.0731
rtoes 49.1094
lfemur -37.7306 -10.6551 -13.9515
ltibia 39.4166
lfoot -21.7814 20.5726
ltoes 21.6365
445
root 0.8181 18.8042 -18.5472 -167.13 -6.17568 -171.776
lowerback -5.34407 0.941551 2.76011
upperback -3.46312 0.817294 3.03858
thorax -0.568781 0.257611 1.61579
lowerneck -12.9527 0.104415 0.56993
upperneck 33.1392 -3.92854 2.66378
head 13.3635 -2.32189 0.113592
rclavicle -1.85988e-014 4.25399e-014
rhumerus -317.111 31.3673 296.919
rradius 85.1779
rwrist -29.9314
rhand -3.78983 411.708
rfingers 7.12502
rthumb 21.9558 22.9339
lclavicle -1.85988e-014 4.25399e-014
lhumerus 74.8906 -43.4563 36.4849
lradius 106.325
lwrist 24.7656
lhand -12.3252 30.303
lfingers 7.12502
lthumb 13.7436 59.8291
rfemur 127.582 -188.331 -152.282
rtibia 40.2178
rfoot -24.7084 -37.3834
rtoes 58.1726
lfemur -37.254 -10.0992 -13.6648
ltibia 39.3813
lfoot -22.7123 21.3244
ltoes 24.1463
446
root 0.785563 18.7505 -18.7295 -167.45 -6.32403 -172.25
lowerback -5.47732 0.731208 2.89454
upperback -3.15842 0.543855 2.88327
thorax -0.175857 0.135178 1.36852
lowerneck -13.0522 0.216569 0.456806
upperneck 33.2763 -3.79403 2.74323
head 13.4461 -2.2715 0.18087
rclavicle 6.24929e-015 -4.96962e-016
rhumerus -317.561 32.1404 296.598
rradius 83.1268
rwrist -26.7124
rhand -5.52498 427.57
rfingers 7.12502
rthumb 20.2889 38.6096
lclavicle 6.24929e-015 -4.96962e-016
lhumerus 73.5972 -44.3696 37.721
lradius 107.449
lwrist 25.1445
lhand -12.1263 30.8167
lfingers 7.12502
lthumb 13.9353 60.3297
rfemur 126.843 -186.341 -152.168
rtibia 40.0876
rfoot -17.2838 -39.2219
rtoes 55.967
lfemur -36.5142 -9.30714 -15.1768
ltibia 39.0628
lfoot -18.6252 24.8314
ltoes 16.2966
447
root 0.80368 18.6332 -18.8373 -167.963 -5.19699 -172.865
lowerback -4.38543 0.832058 2.15376
upperback -2.98445 0.807704 2.58276
thorax -0.611953 0.296689 1.47493
lowerneck -12.5925 0.264788 0.353304
upperneck 33.1659 -3.898 3.1795
head 13.3144 -2.30252 0.356553
rclavicle -2.83268e-015 6.85807e-015
rhumerus -318.31 32.9638 295.75
rradius 81.2668
rwrist -23.5111
rhand -12.0222 437.438
rfingers 7.12502
rthumb 14.0356 47.9322
lclavicle -2.83268e-015 6.85807e-015
lhumerus 73.2468 -45.5618 37.1624
lradius 109.082
lwrist 22.9494
lhand -12.8297 31.1869
lfingers 7.12502
lthumb 13.2574 60.7453
rfemur 125.741 -188.7 -154.024
rtibia 40.0471
rfoot -22.0157 -38.0942
rtoes 57.2962
lfemur -35.9077 -8.34036 -16.5235
ltibia 38.7078
lfoot -13.9926 28.6793
ltoes 1.61494
448
root 0.782182 18.5211 -19.0007 -168.358 -4.6637 -173.506
lowerback -3.64298 0.695749 1.94626
upperback -3.06461 0.689276 2.20964
thorax -1.10523 0.246705 1.19548
lowerneck -12.5681 0.50496 0.234458
upperneck 33.751 -3.96421 3.81624
head 13.5885 -2.31952 0.602863
rclavicle -6.67171e-015 -1.51076e-014
rhumerus -319.158 34.3798 294.667
rradius 79.7567
rwrist -20.8698
rhand -11.1566 448.524
rfingers 7.12502
rthumb 14.8696 59.0775
lclavicle -6.67171e-015 -1.51076e-014
lhumerus 71.7208 -46.9321 37.725
lradius 110.166
lwrist 22.6081
lhand -13.9937 32.0426
lfingers 7.12502
lthumb 12.1351 61.6707
rfemur 124.688 -188.757 -155.132
rtibia 40.1693
rfoot -25.104 -36.5613
rtoes 58.5645
lfemur -34.6235 -7.32847 -18.2029
ltibia 38.183
lfoot -16.7882 27.5626
ltoes 10.6995
